# xmcd
#
# Track frame offsets: 
#        150
#        4076
#        20915
#        37851
#        55354
#        72076
#        90889
#        105963
#        110568
#        126620
#        142091
#        165826
#        181893
#        197518
#        217837
#        220933
#
# Disc length: 3142 seconds
#
# Revision: 0
# Processed by: cddbd v1.5.2PL0 Copyright (c) Steve Scherf et al.
# Submitted via: ExactAudioCopy v0.99pb3
#
DISCID=d50c4410
DTITLE=Speech Defect - Happy Hunting
DYEAR=2009
DGENRE=Hip-Hop
TTITLE0=Intro
TTITLE1=Bad vs. Evil
TTITLE2=Alligator Suede
TTITLE3=What U Got
TTITLE4=Ice Cream Truck
TTITLE5=Happy Hunting feat. The Pharcyde
TTITLE6=Fast and Wobbly
TTITLE7=Time' s Up (skit)
TTITLE8=No Bass! No Way!
TTITLE9=Away With Words
TTITLE10=I Want Horror! feat. Jid Sames
TTITLE11=Move Ta Dis feat Kissey Asplund
TTITLE12=Ghostin'
TTITLE13=Rubberband
TTITLE14=Boom Stuff (skit)
TTITLE15=No Bears In Heaven (Happy Hunting Remix)
EXTD=
EXTT0=
EXTT1=
EXTT2=
EXTT3=
EXTT4=
EXTT5=
EXTT6=
EXTT7=
EXTT8=
EXTT9=
EXTT10=
EXTT11=
EXTT12=
EXTT13=
EXTT14=
EXTT15=
PLAYORDER=
